<?xml version="1.0" standalone="no"?>
<!DOCTYPE svg PUBLIC "-//W3C//DTD SVG 20010904//EN"
 "http://www.w3.org/TR/2001/REC-SVG-20010904/DTD/svg10.dtd">
<svg version="1.0" xmlns="http://www.w3.org/2000/svg"
 width="240.000000pt" height="240.000000pt" viewBox="0 0 240.000000 240.000000"
 preserveAspectRatio="xMidYMid meet">
<metadata>
Created by potrace 1.11, written by Peter Selinger 2001-2013
</metadata>
<g transform="translate(0.000000,240.000000) scale(0.100000,-0.100000)"
fill="#000000" stroke="none">
<path d="M403 2384 c25 -82 16 -116 -22 -92 -17 11 -23 8 -47 -17 -28 -30 -45
-105 -25 -105 7 0 7 -8 2 -22 -4 -13 -6 -29 -3 -37 3 -8 0 -11 -7 -7 -7 5 -11
-1 -11 -14 0 -11 -8 -24 -17 -27 -29 -11 -43 -30 -43 -57 0 -20 -5 -26 -22
-26 -37 0 -52 -14 -34 -30 9 -7 13 -16 10 -21 -3 -5 6 -14 20 -21 29 -13 32
-21 12 -40 -10 -11 -11 -27 -3 -77 l10 -62 -37 -30 c-20 -17 -36 -36 -36 -44
0 -7 -8 -16 -17 -19 -35 -13 -73 -37 -73 -47 0 -21 46 -78 66 -81 21 -3 21 -6
-18 -103 -43 -110 -61 -184 -48 -200 5 -6 2 -19 -6 -29 -9 -13 -14 -46 -14
-93 0 -69 4 -81 54 -182 45 -91 172 -280 181 -269 1 2 -2 37 -7 78 -5 41 -7
115 -4 163 5 79 9 93 38 134 l33 46 3 -33 c2 -19 -2 -44 -8 -56 -11 -19 -9
-27 16 -61 15 -21 25 -35 20 -31 -14 11 -64 -52 -71 -89 -7 -41 1 -56 13 -24
7 20 9 21 21 7 8 -10 11 -28 7 -46 -4 -20 -2 -30 7 -30 24 0 56 -63 54 -105
-2 -32 1 -39 15 -37 28 4 30 -15 3 -36 -29 -23 -32 -32 -10 -32 8 0 15 6 15
14 0 25 54 5 98 -38 23 -22 50 -41 60 -41 14 0 16 -8 14 -48 -2 -26 -1 -47 2
-47 2 0 17 23 32 50 30 55 44 63 44 25 0 -14 5 -25 10 -25 6 0 10 9 10 20 0
18 25 39 34 29 2 -2 7 -31 11 -63 7 -52 6 -58 -9 -53 -38 15 -63 -23 -30 -47
20 -15 26 -66 8 -66 -10 0 -11 -7 -2 -31 17 -49 52 -81 90 -81 41 0 88 18 88
32 0 6 5 8 10 5 6 -4 10 8 11 27 1 49 7 72 19 76 6 2 25 17 42 33 34 31 53 26
61 -14 3 -19 6 -16 21 18 10 22 19 41 20 42 1 2 16 -1 33 -6 20 -6 35 -5 42 2
6 6 13 8 16 5 8 -8 -13 -58 -25 -58 -22 0 -8 -30 22 -44 25 -13 33 -14 40 -4
4 7 8 9 8 4 0 -5 -20 -33 -45 -62 -53 -61 -61 -82 -11 -26 48 52 117 88 217
111 97 23 259 45 267 37 3 -4 -2 -6 -12 -6 -9 0 -15 -3 -13 -8 3 -4 -20 -7
-50 -7 -50 0 -57 -3 -85 -34 -35 -39 -66 -46 -105 -26 -32 17 -57 3 -49 -28 6
-24 -26 -60 -47 -52 -19 8 -65 -15 -92 -45 l-20 -23 38 7 c21 4 68 22 105 41
79 40 118 53 107 35 -6 -9 -3 -9 14 0 12 6 19 15 17 19 -6 10 72 47 80 38 3
-3 38 11 77 31 40 21 86 42 102 49 17 6 55 25 85 43 30 17 45 22 33 12 -12
-11 -24 -32 -27 -46 l-5 -27 57 32 c31 18 65 39 74 47 20 17 24 3 6 -17 -16
-18 -6 -12 85 47 37 24 77 45 89 47 12 3 26 10 32 16 8 9 6 10 -7 6 -10 -4
-16 -3 -13 2 3 5 20 11 37 13 l31 5 -33 -26 c-18 -14 -40 -32 -48 -39 -33 -27
33 10 84 47 28 21 67 50 88 65 21 15 34 32 31 38 -5 7 -2 8 5 4 7 -5 20 -1 29
7 16 14 17 13 17 -13 0 -22 -3 -26 -13 -18 -9 8 -11 7 -6 -6 3 -9 2 -16 -4
-16 -6 0 -12 5 -14 11 -2 7 -9 5 -17 -5 -12 -14 -12 -16 3 -10 9 3 16 1 16 -4
0 -6 -8 -14 -17 -18 -10 -3 -47 -38 -83 -76 l-65 -70 90 63 c90 64 109 78 146
111 18 17 19 37 19 538 l0 520 -31 0 -31 0 31 35 c30 35 31 37 31 141 l0 106
-25 -6 c-14 -4 -25 -5 -25 -3 0 2 11 36 25 77 23 68 25 86 25 268 l-1 196 -72
-70 c-108 -106 -110 -106 -92 -48 8 27 23 76 35 108 11 33 20 61 20 63 0 1
-36 3 -80 3 l-80 0 0 -37 c0 -46 -34 -176 -88 -338 l-40 -119 -47 -22 c-26
-13 -54 -29 -63 -36 -13 -11 -15 -10 -9 12 5 23 21 187 31 323 2 32 1 57 -3
55 -5 -2 -39 -39 -77 -82 -161 -185 -289 -316 -308 -316 -4 0 -46 -23 -93 -50
-46 -28 -125 -71 -174 -95 -49 -25 -89 -47 -89 -50 0 -9 104 36 180 77 190
103 276 169 400 305 119 129 116 128 77 43 -19 -41 -60 -118 -91 -169 -31 -52
-56 -100 -56 -105 0 -21 40 32 89 119 67 120 74 129 51 69 -38 -102 -155 -277
-245 -364 -79 -77 -108 -120 -49 -73 123 98 284 310 335 442 22 57 23 38 4
-109 -33 -259 -38 -275 -104 -345 -68 -72 -98 -131 -34 -67 79 78 134 146 129
159 -5 13 19 193 26 197 2 1 42 19 91 40 114 51 153 76 265 175 50 45 92 78
92 73 0 -33 -124 -353 -153 -397 -40 -59 -99 -125 -107 -120 -12 7 -51 -45
-43 -58 3 -5 2 -7 -4 -4 -5 3 -38 -26 -74 -65 -78 -87 -84 -96 -60 -94 25 1
93 66 182 171 74 89 82 93 204 121 l30 7 -21 -24 c-88 -103 -200 -224 -205
-224 -4 0 -11 -3 -14 -7 -4 -4 -15 -4 -24 0 -42 19 -71 2 -71 -44 0 -31 2 -34
19 -25 15 8 20 7 25 -5 5 -12 10 -11 28 11 19 21 38 28 113 39 81 12 107 12
94 3 -2 -2 -55 -47 -116 -100 -62 -53 -117 -97 -122 -97 -5 0 -24 -15 -42 -33
-18 -17 -29 -25 -25 -17 5 8 -3 2 -17 -15 -31 -37 -19 -44 27 -16 l34 21 43
-24 43 -25 -73 -33 c-41 -18 -69 -34 -63 -36 6 -2 32 6 58 17 26 12 52 21 58
21 6 -1 -23 -15 -64 -33 -41 -18 -85 -39 -97 -48 l-22 -16 44 -42 c68 -65 166
-201 160 -222 -3 -9 0 -21 6 -25 9 -5 10 -2 5 11 -6 16 -4 16 10 4 10 -8 12
-15 5 -17 -6 -2 -11 -8 -11 -13 0 -6 4 -8 9 -4 5 3 13 0 17 -7 4 -7 4 -10 -1
-6 -4 4 -14 0 -22 -10 -8 -9 -12 -12 -9 -5 9 16 -4 43 -20 43 -8 0 -14 -7 -14
-15 0 -8 -7 -15 -16 -15 -11 0 -14 -5 -9 -17 4 -10 8 -24 8 -30 0 -17 0 -17
60 17 30 17 64 30 77 30 20 0 21 2 9 17 -8 10 0 6 17 -7 17 -14 27 -28 21 -31
-5 -4 7 -22 26 -40 l36 -34 -23 -23 -22 -22 -42 38 c-23 22 -42 46 -42 54 0 8
-3 17 -6 21 -13 12 -90 -37 -145 -92 -31 -31 -76 -71 -100 -89 -24 -19 -5 4
44 50 48 45 87 87 87 91 0 5 -5 5 -12 1 -7 -4 -8 -3 -4 4 4 7 1 12 -8 12 -8 0
-18 -5 -22 -11 -4 -8 -9 -7 -15 2 -6 11 -11 10 -26 -3 -34 -31 -53 -26 -68 15
-16 46 -30 63 -21 25 7 -31 -12 -43 -32 -19 -11 14 -12 13 -7 -9 4 -14 3 -20
-2 -15 -4 6 -18 16 -30 23 -20 10 -24 9 -35 -8 -7 -11 -24 -20 -37 -20 -19 0
-21 -3 -12 -14 9 -11 7 -15 -13 -20 -23 -6 -45 -36 -26 -36 20 0 8 -26 -30
-68 -32 -35 -60 -91 -60 -122 0 -4 17 -4 38 -2 l37 4 -33 -21 c-18 -12 -48
-21 -67 -21 -33 0 -34 1 -23 20 12 18 13 19 19 2 7 -17 13 2 44 128 45 182 46
248 2 101 -16 -54 -32 -89 -38 -86 -6 4 -7 -3 -3 -21 5 -18 3 -25 -3 -21 -14
9 -24 -18 -16 -40 5 -12 3 -14 -7 -8 -10 6 -12 4 -7 -8 3 -8 1 -29 -5 -45 -10
-27 -17 -30 -66 -36 -30 -4 -56 -5 -58 -4 -1 2 11 24 28 48 17 25 52 90 79
146 43 90 49 111 55 194 8 109 -9 120 -20 13 -4 -37 -9 -83 -11 -101 -4 -41
-83 -204 -95 -197 -5 3 -12 27 -15 53 -4 26 -11 60 -17 75 -9 24 -7 31 12 52
27 29 37 26 20 -5 -9 -17 -9 -21 0 -15 16 10 90 164 90 187 0 35 -20 17 -49
-44 -36 -80 -142 -194 -191 -208 -64 -18 -79 -13 -151 55 -38 36 -76 65 -85
65 -16 0 -64 28 -77 45 -4 5 -7 21 -6 35 1 14 1 29 0 33 -1 5 -25 -5 -55 -21
-68 -37 -80 -31 -61 31 8 26 16 65 19 88 3 26 13 48 30 64 14 13 26 34 26 47
l0 22 16 -22 c13 -19 18 -21 31 -10 13 11 13 7 -2 -22 -20 -40 -31 -54 -22
-28 4 10 2 18 -3 18 -6 0 -10 -9 -10 -20 0 -27 27 -26 35 1 4 12 42 55 84 95
63 61 72 74 53 74 -22 0 -58 -16 -77 -35 -5 -6 -9 -9 -9 -7 1 2 -6 34 -16 71
-14 54 -15 71 -5 84 20 28 24 20 27 -50 l3 -68 41 85 c22 47 45 96 51 110 10
25 11 24 18 -13 4 -20 5 -69 3 -107 -2 -38 -1 -66 3 -62 4 4 31 44 61 88 48
74 76 116 71 106 -1 -2 9 -15 23 -28 19 -20 28 -23 44 -14 17 9 20 21 20 75 0
35 5 67 10 70 18 11 68 -34 81 -73 6 -20 16 -43 21 -49 7 -8 8 -46 3 -97 -4
-56 -3 -86 4 -91 17 -10 13 -40 -9 -60 -19 -17 -28 -55 -12 -55 4 0 8 -12 9
-26 0 -15 5 -29 11 -33 5 -3 11 -13 14 -21 5 -16 -37 -108 -80 -172 -37 -57
-20 -57 21 1 45 62 77 124 77 149 0 10 -7 40 -16 67 -16 44 -16 51 -1 79 12
24 15 56 13 136 -2 89 -6 114 -29 161 -14 31 -23 60 -19 64 4 4 0 5 -8 3 -8
-2 -14 4 -15 12 0 8 -11 17 -25 21 -54 15 -58 13 -65 -51 -6 -51 -10 -60 -27
-60 -19 0 -20 4 -14 43 14 91 18 214 9 231 -7 13 -12 -13 -16 -93 -6 -110 -6
-113 -53 -194 -26 -45 -54 -92 -63 -103 -17 -24 -18 -22 -51 241 -6 49 -16 98
-22 108 -18 35 26 2 56 -42 27 -39 28 -45 24 -136 -4 -94 4 -125 16 -64 12 64
7 163 -12 190 -40 59 -78 99 -94 99 -9 0 -31 20 -49 45 -55 77 -53 50 3 -32
l52 -78 0 -90 c1 -107 -4 -136 -35 -211 -23 -57 -23 -57 -31 -28 -4 16 -4 41
1 56 7 20 6 30 -4 38 -8 6 -17 26 -20 43 -13 61 -120 197 -155 197 -6 0 -10
-22 -10 -48 0 -48 -1 -49 -38 -60 -48 -14 -73 -41 -111 -117 -43 -85 -38 -104
6 -23 20 37 38 66 39 65 2 -1 -10 -39 -26 -84 -60 -169 -57 -285 11 -428 17
-37 29 -68 26 -71 -8 -8 -97 97 -142 166 -73 112 -89 160 -81 242 3 39 18 104
31 145 28 83 29 87 15 78 -20 -12 -59 -164 -61 -237 -3 -85 20 -145 97 -256
60 -86 32 -62 -67 57 -78 93 -79 95 -79 150 0 74 18 239 29 271 4 14 16 51 26
83 17 53 23 61 64 81 25 13 69 31 96 40 70 23 91 39 43 32 -50 -6 -151 -53
-178 -81 -11 -12 -29 -44 -39 -71 -17 -43 -24 -51 -65 -66 -73 -28 -193 -132
-232 -203 -40 -72 -50 -60 -40 48 8 80 33 172 79 289 28 74 32 79 81 102 28
13 81 35 119 48 l67 23 26 -30 c31 -36 30 -30 -20 110 -63 180 -64 226 -6 410
28 86 117 282 125 273 1 -2 -4 -43 -12 -93 -22 -136 -13 -334 21 -448 27 -90
63 -173 72 -164 3 3 -8 44 -25 91 -59 167 -76 372 -46 541 21 115 24 108 -42
101 -32 -3 -62 -6 -68 -6 -5 -1 -39 2 -74 6 -59 7 -63 6 -58 -12z m52 -8 c16
-12 17 -16 6 -29 -17 -21 -41 -10 -41 19 0 27 8 30 35 10z m105 -104 c0 -5 -7
-9 -15 -9 -8 0 -12 4 -9 9 3 4 9 8 15 8 5 0 9 -4 9 -8z m1799 -186 c-28 -77
-33 -67 -6 12 12 34 23 58 25 53 1 -4 -7 -34 -19 -65z m-506 -31 c-3 -9 -8
-14 -10 -11 -3 3 -2 9 2 15 9 16 15 13 8 -4z m-1406 -147 c-3 -8 -6 -5 -6 6
-1 11 2 17 5 13 3 -3 4 -12 1 -19z m1826 -63 c-3 -9 -8 -14 -10 -11 -3 3 -2 9
2 15 9 16 15 13 8 -4z m-1826 -27 c-3 -7 -5 -2 -5 12 0 14 2 19 5 13 2 -7 2
-19 0 -25z m-199 -23 c-3 -3 -9 2 -12 12 -6 14 -5 15 5 6 7 -7 10 -15 7 -18z
m2121 -108 c-47 -43 -64 -50 -24 -10 22 21 42 38 45 36 2 -2 -7 -14 -21 -26z
m-2110 4 c7 -5 11 -14 7 -19 -9 -15 -36 -4 -36 14 0 16 9 18 29 5z m-39 -76
c-7 -8 -17 -12 -23 -8 -6 4 -3 11 8 19 23 17 32 10 15 -11z m2060 -18 c0 -2
-17 -19 -37 -38 l-38 -34 34 38 c33 34 41 42 41 34z m-100 -110 c0 -2 -10 -12
-22 -23 l-23 -19 19 23 c18 21 26 27 26 19z m-1937 -22 c-3 -9 -8 -14 -10 -11
-3 3 -2 9 2 15 9 16 15 13 8 -4z m2107 -29 c0 -2 -8 -10 -17 -17 -16 -13 -17
-12 -4 4 13 16 21 21 21 13z m-1471 -91 c2 17 5 24 8 16 4 -10 7 -10 13 -2 4
8 17 -1 35 -25 33 -43 58 -107 44 -112 -5 -2 -6 -9 -2 -15 4 -8 1 -8 -9 1 -13
10 -19 4 -41 -45 -29 -66 -42 -119 -52 -215 -6 -66 -17 -89 -30 -68 -9 15 -24
12 -21 -4 1 -8 8 -22 16 -31 13 -15 12 -17 -5 -13 -13 2 -20 11 -19 26 0 12
-3 22 -8 22 -4 0 -8 69 -8 153 0 157 9 208 44 246 10 11 15 25 11 30 -3 6 -3
32 2 59 l8 47 6 -50 c4 -35 7 -41 8 -20z m-54 -45 c-11 -5 -27 -9 -35 -9 -9 0
-8 4 5 9 11 5 27 9 35 9 9 0 8 -4 -5 -9z m-380 -30 c-3 -5 -12 -10 -18 -10 -7
0 -6 4 3 10 19 12 23 12 15 0z m365 -4 c0 -3 -5 -17 -11 -33 -6 -15 -15 -71
-19 -123 -5 -52 -15 -122 -23 -155 l-14 -60 -5 56 c-4 31 -3 87 2 123 9 71 48
196 62 196 4 0 8 -2 8 -4z m1320 -9 c0 -2 -19 -21 -42 -42 l-43 -40 40 43 c36
39 45 47 45 39z m-797 -64 c-7 -2 -21 -2 -30 0 -10 3 -4 5 12 5 17 0 24 -2 18
-5z m-1186 -125 c-2 -24 -4 -5 -4 42 0 47 2 66 4 43 2 -24 2 -62 0 -85z m827
64 c-31 -47 -54 -100 -68 -159 -14 -56 -14 -57 -15 -18 -1 51 14 115 41 176
18 43 23 47 40 38 19 -10 19 -11 2 -37z m1066 34 c0 -2 -7 -7 -16 -10 -8 -3
-12 -2 -9 4 6 10 25 14 25 6z m-1780 -40 c0 -2 -8 -10 -17 -17 -16 -13 -17
-12 -4 4 13 16 21 21 21 13z m467 -18 c-3 -8 -6 -5 -6 6 -1 11 2 17 5 13 3 -3
4 -12 1 -19z m-280 -20 c-3 -8 -6 -5 -6 6 -1 11 2 17 5 13 3 -3 4 -12 1 -19z
m293 -200 c5 -10 10 -28 10 -40 -1 -23 -1 -23 -15 2 -8 14 -23 48 -34 77 -18
47 -19 59 -9 110 l12 58 13 -95 c7 -52 17 -103 23 -112z m228 50 c-10 -21 -19
-38 -21 -38 -1 0 -2 33 -1 73 0 95 14 119 29 52 10 -43 9 -55 -7 -87z m-791
40 c-3 -8 -6 -5 -6 6 -1 11 2 17 5 13 3 -3 4 -12 1 -19z m750 -40 c-3 -7 -5
-2 -5 12 0 14 2 19 5 13 2 -7 2 -19 0 -25z m-150 -30 c-3 -8 -6 -5 -6 6 -1 11
2 17 5 13 3 -3 4 -12 1 -19z m105 -40 c-8 -8 -9 -4 -5 13 4 13 8 18 11 10 2
-7 -1 -18 -6 -23z m-172 -11 c0 -5 -4 -5 -10 -2 -5 3 -10 14 -10 23 0 15 2 15
10 2 5 -8 10 -19 10 -23z m75 -27 c3 -5 1 -10 -4 -10 -6 0 -11 5 -11 10 0 6 2
10 4 10 3 0 8 -4 11 -10z m-124 -127 c13 -16 12 -17 -3 -4 -10 7 -18 15 -18
17 0 8 8 3 21 -13z m117 -38 c-3 -3 -9 2 -12 12 -6 14 -5 15 5 6 7 -7 10 -15
7 -18z m162 -14 c0 -14 -18 -23 -30 -16 -6 4 -8 11 -5 16 8 12 35 12 35 0z
m-62 -38 c-10 -2 -26 -2 -35 0 -10 3 -2 5 17 5 19 0 27 -2 18 -5z m55 0 c-7
-2 -19 -2 -25 0 -7 3 -2 5 12 5 14 0 19 -2 13 -5z m1443 -37 c8 -8 11 -17 6
-20 -4 -2 -13 4 -20 15 -14 22 -7 25 14 5z m-1315 -43 c13 -16 12 -17 -3 -4
-10 7 -18 15 -18 17 0 8 8 3 21 -13z m919 14 c0 -2 -12 -14 -27 -28 l-28 -24
24 28 c23 25 31 32 31 24z m-1002 -107 c27 -25 27 -28 2 -48 -12 -10 -23 -28
-25 -42 -7 -50 -17 -68 -41 -74 -14 -4 -22 -11 -19 -16 3 -5 -9 -2 -26 7 -20
10 -46 14 -75 10 l-44 -5 1 42 c0 35 2 38 10 18 7 -18 15 -23 36 -20 26 3 28
6 25 44 -3 52 27 86 58 66 26 -16 30 -15 30 7 0 18 12 28 36 30 5 1 20 -8 32
-19z m337 0 c-3 -5 -12 -10 -18 -10 -7 0 -6 4 3 10 19 12 23 12 15 0z m-48
-16 c-3 -3 -12 -4 -19 -1 -8 3 -5 6 6 6 11 1 17 -2 13 -5z m-40 -10 c-3 -3
-12 -4 -19 -1 -8 3 -5 6 6 6 11 1 17 -2 13 -5z m803 -26 c-14 -5 -38 -16 -55
-23 -16 -7 -42 -16 -57 -19 -14 -3 -34 -9 -45 -13 -10 -3 -15 -3 -11 2 10 10
159 64 178 64 8 0 4 -5 -10 -11z m-190 -13 c0 -2 -10 -9 -22 -15 -22 -11 -22
-10 -4 4 21 17 26 19 26 11z m-50 -39 c0 -2 -8 -10 -17 -17 -16 -13 -17 -12
-4 4 13 16 21 21 21 13z"/>
<path d="M873 1221 c-25 -44 -43 -132 -43 -215 0 -74 16 -59 26 24 3 30 15 92
26 138 11 46 18 85 16 87 -2 2 -13 -13 -25 -34z"/>
<path d="M848 368 c5 -5 16 -8 23 -6 8 3 3 7 -10 11 -17 4 -21 3 -13 -5z"/>
<path d="M675 2348 c20 -156 48 -292 75 -362 42 -108 103 -224 141 -266 30
-35 31 -31 6 31 -8 21 -6 37 12 80 13 30 28 59 33 64 5 6 3 -7 -6 -29 -33 -79
-14 -68 30 18 24 49 65 120 90 159 51 78 53 99 4 38 -18 -22 -36 -38 -41 -36
-10 7 -93 -124 -120 -191 -13 -30 -26 -54 -30 -54 -3 0 -12 14 -19 31 -12 28
-10 37 38 132 28 56 73 137 101 180 46 71 61 84 155 145 58 37 122 77 143 89
32 19 35 22 15 23 -12 0 -34 -7 -47 -16 -23 -15 -25 -15 -25 0 0 24 -17 19
-24 -7 -3 -15 -36 -44 -90 -80 -96 -64 -147 -129 -242 -312 l-53 -100 -21 50
c-12 28 -31 77 -42 111 l-20 60 70 147 71 147 -106 0 -105 0 7 -52z m55 -108
c0 -13 -1 -13 -10 0 -5 8 -10 22 -10 30 0 13 1 13 10 0 5 -8 10 -22 10 -30z
m-3 -42 c-3 -8 -6 -5 -6 6 -1 11 2 17 5 13 3 -3 4 -12 1 -19z"/>
<path d="M1398 2348 c-67 -100 -117 -193 -157 -293 -43 -108 -84 -264 -79
-305 2 -15 12 14 26 70 39 164 128 363 228 508 49 70 50 72 31 72 -8 0 -30
-24 -49 -52z"/>
<path d="M1434 2322 c-124 -187 -204 -405 -204 -554 0 -71 6 -58 20 42 21 156
93 334 206 508 29 45 48 82 41 82 -6 0 -35 -35 -63 -78z"/>
<path d="M370 2361 c0 -5 5 -13 10 -16 6 -3 10 -2 10 4 0 5 -4 13 -10 16 -5 3
-10 2 -10 -4z"/>
<path d="M185 2260 c10 -11 20 -18 23 -15 7 6 -18 35 -31 35 -5 0 -2 -9 8 -20z"/>
<path d="M155 2172 c-5 -4 -15 -21 -21 -38 -10 -27 -8 -31 13 -41 13 -7 25 -7
29 -2 3 5 10 7 15 3 6 -4 6 -10 0 -18 -6 -7 -8 -16 -4 -19 11 -12 23 -8 23 8
0 8 5 15 11 15 6 0 3 14 -7 33 -9 17 -20 38 -24 46 -8 18 -22 23 -35 13z"/>
<path d="M535 2143 c-4 -10 -10 -68 -13 -129 -5 -115 6 -208 34 -293 24 -69
74 -171 85 -171 5 0 -4 26 -20 58 -68 135 -98 304 -81 456 11 89 9 112 -5 79z"/>
<path d="M100 2001 c0 -6 4 -13 10 -16 6 -3 7 1 4 9 -7 18 -14 21 -14 7z"/>
<path d="M573 1930 c10 -115 62 -277 118 -367 30 -49 34 -35 5 18 -38 70 -85
214 -101 312 -17 107 -30 129 -22 37z"/>
<path d="M122 1835 c-18 -6 -29 -14 -26 -18 11 -10 82 -8 89 2 11 18 -29 28
-63 16z"/>
<path d="M55 1750 c-3 -5 1 -10 9 -10 9 0 16 5 16 10 0 6 -4 10 -9 10 -6 0
-13 -4 -16 -10z"/>
<path d="M0 1681 c0 -12 5 -21 10 -21 6 0 10 6 10 14 0 8 -4 18 -10 21 -5 3
-10 -3 -10 -14z"/>
<path d="M871 1588 c-19 -5 -49 -21 -68 -35 -30 -23 -32 -28 -27 -67 8 -48 44
-150 51 -142 3 2 -2 26 -10 53 -9 26 -18 66 -22 89 -5 36 -3 41 19 54 24 12
30 10 83 -26 32 -21 65 -43 73 -47 28 -15 -65 64 -95 81 l-30 16 48 10 c26 5
47 13 47 18 0 10 -25 9 -69 -4z"/>
<path d="M454 1510 c-63 -32 -143 -94 -133 -104 3 -3 21 6 40 20 19 14 67 44
107 66 39 22 72 42 72 44 0 11 -32 1 -86 -26z"/>
<path d="M1200 1490 l42 -50 -4 -80 c-3 -84 5 -107 16 -42 14 85 8 113 -35
169 -23 29 -46 53 -51 53 -5 0 9 -23 32 -50z"/>
<path d="M504 1480 c-28 -10 -68 -29 -90 -43 -52 -33 -137 -124 -163 -175 -26
-51 -13 -56 14 -6 38 71 133 154 222 195 46 22 83 41 83 44 0 8 -10 5 -66 -15z"/>
<path d="M991 1435 c0 -18 46 -185 52 -192 20 -20 -16 155 -38 183 -8 11 -14
15 -14 9z"/>
<path d="M704 1381 c-43 -25 -56 -40 -88 -104 -31 -60 -39 -88 -42 -143 l-4
-69 16 74 c8 40 30 104 49 141 31 61 40 71 90 95 30 15 55 29 55 31 0 11 -30
1 -76 -25z"/>
<path d="M1552 1339 c-17 -15 -38 -32 -48 -38 -16 -9 -17 -12 -4 -20 16 -11
44 5 34 20 -3 5 1 6 8 4 8 -3 32 10 53 29 39 33 40 34 13 33 -15 -1 -40 -14
-56 -28z m38 17 c0 -2 -8 -10 -17 -17 -16 -13 -17 -12 -4 4 13 16 21 21 21 13z"/>
<path d="M1364 1250 c2 -14 7 -45 11 -70 3 -24 10 -49 14 -55 5 -5 11 -38 14
-73 4 -34 11 -70 17 -80 9 -13 10 -9 5 20 -4 24 0 55 11 85 15 45 15 51 0 87
-21 51 -32 39 -16 -19 7 -25 10 -48 6 -52 -3 -3 -6 3 -6 15 0 11 -5 22 -12 24
-7 3 -13 27 -14 58 -2 33 -9 59 -19 69 -15 15 -16 14 -11 -9z"/>
<path d="M1900 1130 c-9 -6 -10 -10 -3 -10 6 0 15 5 18 10 8 12 4 12 -15 0z"/>
<path d="M1730 1069 c0 -5 -4 -8 -9 -5 -8 5 -101 -51 -101 -61 0 -2 5 -1 12 3
6 4 8 3 5 -2 -3 -5 -28 -8 -56 -7 -30 2 -53 -2 -57 -9 -4 -6 -3 -9 2 -6 5 4
23 0 39 -7 19 -9 24 -14 13 -14 -21 -1 -25 -21 -4 -21 21 0 177 120 171 131
-8 12 -15 12 -15 -2z m-50 -33 c0 -2 -8 -10 -17 -17 -16 -13 -17 -12 -4 4 13
16 21 21 21 13z"/>
<path d="M1698 1003 c-26 -20 -46 -39 -44 -41 7 -7 61 26 85 52 35 37 14 32
-41 -11z"/>
<path d="M883 818 c-16 -20 -25 -68 -13 -68 5 0 10 6 10 13 0 6 7 24 14 40 15
27 7 38 -11 15z"/>
<path d="M1033 650 c-18 -11 -33 -24 -33 -30 0 -15 9 -12 37 10 14 11 34 20
44 20 11 0 19 5 19 10 0 16 -33 11 -67 -10z"/>
<path d="M126 535 c-3 -8 -9 -14 -13 -13 -13 4 -53 -26 -53 -39 0 -7 -4 -13
-8 -13 -13 0 -8 -76 6 -93 8 -9 11 -21 7 -27 -3 -5 5 -14 19 -20 14 -5 26 -15
26 -21 0 -6 6 -9 14 -6 7 3 22 0 32 -7 48 -33 104 -25 104 14 0 9 12 22 26 29
24 11 26 10 21 -9 -5 -21 16 -29 28 -10 3 6 1 10 -4 10 -6 0 -11 16 -11 35 0
26 4 35 16 35 14 0 15 7 10 43 -4 23 -13 47 -21 53 -8 6 -15 16 -15 21 0 6
-12 11 -26 11 -15 0 -29 4 -33 9 -6 10 -78 9 -88 -1 -4 -3 -12 -1 -18 4 -9 8
-14 6 -19 -5z"/>
<path d="M427 463 c-17 -4 -16 -6 4 -24 40 -35 91 -19 55 17 -15 14 -26 16
-59 7z"/>
<path d="M420 390 c0 -5 7 -10 15 -10 8 0 15 5 15 10 0 6 -7 10 -15 10 -8 0
-15 -4 -15 -10z"/>
<path d="M536 385 c-3 -9 0 -15 8 -15 7 0 13 7 13 15 0 8 -4 15 -8 15 -4 0 -9
-7 -13 -15z"/>
<path d="M384 365 c-4 -9 -2 -21 4 -27 15 -15 44 -1 40 19 -4 23 -36 29 -44 8z"/>
<path d="M130 274 c0 -8 5 -12 10 -9 6 3 10 10 10 16 0 5 -4 9 -10 9 -5 0 -10
-7 -10 -16z"/>
<path d="M330 250 c-68 -26 -62 -77 11 -95 32 -8 42 10 29 56 -7 22 -6 37 1
46 6 7 10 13 8 12 -2 -1 -24 -9 -49 -19z"/>
<path d="M1736 251 c-4 -7 -5 -15 -2 -18 9 -9 19 4 14 18 -4 11 -6 11 -12 0z"/>
<path d="M1650 195 c0 -27 9 -32 27 -14 9 9 8 15 -2 25 -19 20 -25 17 -25 -11z"/>
<path d="M1563 169 c-5 -5 -19 -11 -31 -12 -11 0 -19 -4 -16 -8 4 -7 -26 -23
-38 -21 -5 1 -7 -3 -5 -9 1 -6 -17 -21 -41 -33 -23 -13 -48 -29 -55 -37 -10
-12 -10 -12 3 -1 29 25 33 11 5 -18 l-29 -30 33 0 c46 0 71 16 71 47 0 22 2
24 16 12 13 -11 18 -10 32 8 10 11 27 24 40 28 28 8 54 47 46 69 -7 19 -16 20
-31 5z"/>
<path d="M1218 27 c-16 -6 -28 -14 -28 -19 0 -16 40 -8 60 12 22 22 11 24 -32
7z"/>
</g>
</svg>
